<?xml version="1.0" standalone="no"?>
<!DOCTYPE svg PUBLIC "-//W3C//DTD SVG 20010904//EN"
 "http://www.w3.org/TR/2001/REC-SVG-20010904/DTD/svg10.dtd">
<svg version="1.0" xmlns="http://www.w3.org/2000/svg"
 width="512.000000pt" height="512.000000pt" viewBox="0 0 512.000000 512.000000"
 preserveAspectRatio="xMidYMid meet">
<metadata>
Created by potrace 1.16, written by Peter Selinger 2001-2019
</metadata>
<g transform="translate(0.000000,512.000000) scale(0.100000,-0.100000)"
fill="#000000" stroke="none">
<path d="M1847 4133 c-145 -144 -177 -184 -177 -230 0 -47 45 -93 92 -93 36 0
64 15 116 63 l32 31 0 -257 c0 -274 6 -313 48 -336 39 -21 91 -13 123 18 l29
29 0 412 c0 490 2 480 -102 480 -39 0 -48 -6 -161 -117z"/>
<path d="M2580 4241 c-87 -28 -174 -102 -210 -177 -12 -23 -25 -68 -30 -100
-13 -76 -13 -302 0 -378 26 -163 146 -275 303 -284 64 -4 70 -2 98 24 23 22
29 36 29 70 0 55 -33 89 -98 99 -58 8 -104 36 -122 72 -18 36 -26 323 -11 379
31 116 190 142 251 41 11 -18 20 -45 20 -60 0 -36 24 -83 49 -97 39 -20 91
-12 123 21 29 29 30 33 26 92 -10 115 -83 224 -185 273 -44 22 -73 28 -137 31
-45 1 -92 -1 -106 -6z"/>
<path d="M3470 4241 c-93 -30 -164 -94 -207 -186 l-28 -60 0 -220 0 -220 28
-60 c57 -123 171 -195 307 -195 136 0 242 66 302 188 l33 67 0 220 c0 255 -7
286 -84 368 -70 75 -127 100 -236 104 -49 1 -101 -1 -115 -6z m171 -214 c61
-40 69 -71 69 -257 0 -137 -3 -171 -18 -200 -48 -95 -192 -95 -243 0 -16 30
-19 58 -19 197 0 191 10 227 68 261 48 28 100 28 143 -1z"/>
<path d="M1325 3011 c-11 -5 -84 -74 -162 -153 -135 -137 -143 -147 -143 -184
0 -47 19 -77 59 -94 43 -17 75 -6 132 47 l49 46 0 -273 0 -272 34 -34 c25 -25
43 -34 66 -34 23 0 42 9 66 34 l34 34 0 411 0 411 -27 30 c-30 32 -75 45 -108
31z"/>
<path d="M1947 3010 c-118 -30 -214 -119 -248 -231 -19 -62 -20 -88 -17 -266
3 -192 4 -200 31 -254 32 -67 109 -142 175 -172 36 -16 67 -21 132 -22 73 0
93 4 141 27 70 35 132 97 167 168 26 53 27 61 30 253 3 178 2 204 -17 266 -40
130 -159 225 -297 236 -33 2 -76 0 -97 -5z m152 -217 c53 -39 61 -72 61 -258
0 -152 -2 -173 -20 -203 -59 -97 -191 -93 -243 8 -15 30 -17 58 -15 212 3 160
5 179 24 205 46 62 134 79 193 36z"/>
<path d="M2855 3001 c-16 -10 -90 -79 -162 -153 -122 -123 -133 -138 -133
-171 0 -55 45 -102 99 -102 35 0 47 7 90 49 l50 49 3 -271 c3 -255 4 -272 24
-298 38 -52 103 -56 150 -9 l24 24 0 416 c0 458 1 452 -62 474 -41 15 -48 14
-83 -8z"/>
<path d="M3497 3010 c-104 -27 -188 -97 -236 -199 -25 -55 -26 -60 -26 -266 0
-250 8 -284 86 -370 74 -80 141 -110 249 -110 71 0 94 4 140 26 70 33 136 99
169 169 26 54 26 59 26 280 l0 225 -28 57 c-35 71 -119 150 -184 172 -61 21
-147 28 -196 16z m149 -215 c14 -9 34 -30 45 -48 18 -29 19 -47 17 -219 l-3
-188 -37 -36 c-69 -70 -175 -52 -221 36 -15 30 -17 58 -15 212 3 160 5 179 24
205 45 61 129 78 190 38z"/>
<path d="M1470 1811 c-89 -29 -174 -104 -213 -189 -21 -44 -22 -62 -22 -282 0
-227 1 -237 24 -283 31 -63 95 -127 156 -157 72 -35 198 -40 276 -11 82 31
139 85 179 172 32 70 33 76 38 233 7 248 -16 344 -103 431 -64 65 -125 90
-225 92 -47 1 -96 -1 -110 -6z m178 -210 c49 -26 57 -62 57 -258 0 -168 -2
-184 -21 -210 -44 -60 -123 -79 -182 -43 -65 40 -72 65 -72 258 0 182 5 206
49 246 38 34 112 38 169 7z"/>
<path d="M2288 1672 c-137 -138 -148 -152 -148 -186 0 -48 13 -72 50 -91 51
-26 77 -19 136 36 l54 52 0 -142 c0 -193 19 -233 108 -233 28 0 43 7 64 31
l28 31 0 296 0 296 -29 29 c-24 23 -38 29 -73 29 -42 0 -46 -3 -190 -148z"/>
</g>
</svg>
